<svg xmlns="http://www.w3.org/2000/svg" width="17.786" height="15.756" viewBox="0 0 17.786 15.756">
  <path id="ic_anhien" d="M11.813,15.71a2.451,2.451,0,0,1-1.863-1.68.752.752,0,0,1-.2.027h-9a.75.75,0,0,1,0-1.5h9a.753.753,0,0,1,.2.027q.033-.108.077-.213a2.449,2.449,0,0,1,2.264-1.514h.023a2.507,2.507,0,0,1,2.295,1.7h2.427a.75.75,0,1,1,0,1.5H14.624a2.453,2.453,0,0,1-2.811,1.653Zm-.049-3.193a.947.947,0,0,0-.4.975.936.936,0,0,0,.259.487.951.951,0,0,0,1.036.206.951.951,0,0,0,.586-.866v0a1.008,1.008,0,0,0-.962-.959A.947.947,0,0,0,11.764,12.516ZM3.172,8.624H.75a.75.75,0,0,1,0-1.5H3.172a2.447,2.447,0,0,1,4.665.027.75.75,0,0,1,.2-.027h9a.75.75,0,0,1,0,1.5h-9a.75.75,0,0,1-.2-.027,2.447,2.447,0,0,1-4.666.027Zm1.383-.75A.946.946,0,1,0,5.5,6.927.948.948,0,0,0,4.555,7.874ZM9.95,3.169a.753.753,0,0,1-.2.027h-9a.75.75,0,1,1,0-1.5h9a.753.753,0,0,1,.2.027A2.447,2.447,0,0,1,14.616,1.7h2.421a.75.75,0,1,1,0,1.5H14.615A2.446,2.446,0,0,1,9.95,3.169Zm1.391-.723a.946.946,0,1,0,.946-.946A.948.948,0,0,0,11.341,2.446Z" fill="#5f7d95"/>
</svg>
