<?xml version="1.0" encoding="utf-8"?>
<!-- Generator: Adobe Illustrator 22.1.0, SVG Export Plug-In . SVG Version: 6.00 Build 0)  -->
<svg version="1.1" id="Layer_1" xmlns="http://www.w3.org/2000/svg" xmlns:xlink="http://www.w3.org/1999/xlink" x="0px" y="0px"
	 viewBox="0 0 512 512" style="enable-background:new 0 0 512 512;" xml:space="preserve">
<style type="text/css">
	.st0{fill:#FFFFFF;}
	.st1{fill:#2D527C;}
	.st2{fill:#CEE8FA;}
</style>
<polygon class="st0" points="437.6,497 19.8,497 19.8,172.3 96.3,91.4 170,14.9 437.6,14.9 "/>
<path class="st1" d="M438.6,512H19.8c-8.2,0-14.9-6.7-14.9-14.9V256.9c0-8.2,6.7-14.9,14.9-14.9s14.9,6.7,14.9,14.9v225.3h389v-32.8
	c0-8.2,6.7-14.9,14.9-14.9s14.9,6.7,14.9,14.9v47.7C453.4,505.3,446.8,512,438.6,512z"/>
<g>
	<polygon class="st2" points="19.8,177.1 19.8,172.3 175.6,14.9 175.6,177.1 	"/>
	<rect x="196.2" y="219.4" class="st2" width="296.1" height="163.6"/>
</g>
<g>
	<path class="st1" d="M492.2,204.6h-38.8V14.9c0-8.2-6.7-14.9-14.9-14.9h-263c-0.2,0-0.4,0-0.5,0c-0.2,0-0.3,0-0.5,0
		c-0.6,0-1.3,0.1-1.9,0.2c0,0,0,0,0,0c-0.6,0.1-1.2,0.3-1.8,0.5c-0.2,0.1-0.3,0.1-0.5,0.2c-0.6,0.2-1.2,0.5-1.7,0.8c0,0,0,0-0.1,0
		c-0.6,0.3-1.1,0.7-1.6,1c-0.1,0.1-0.3,0.2-0.4,0.3c-0.5,0.4-1,0.8-1.5,1.3L9.2,161.9c-0.4,0.4-0.7,0.7-1,1.1
		c-0.2,0.3-0.4,0.5-0.6,0.8c-0.1,0.1-0.2,0.3-0.3,0.4c-0.2,0.3-0.4,0.7-0.6,1c0,0.1-0.1,0.2-0.1,0.2c-0.2,0.3-0.3,0.7-0.5,1.1
		c0,0.1-0.1,0.2-0.1,0.3c-0.1,0.3-0.3,0.7-0.4,1c0,0.1-0.1,0.2-0.1,0.3c-0.1,0.3-0.2,0.6-0.2,1c0,0.1-0.1,0.3-0.1,0.4
		c-0.1,0.3-0.1,0.6-0.1,0.9c0,0.2-0.1,0.4-0.1,0.5c0,0.3,0,0.6,0,0.9c0,0.2,0,0.3,0,0.5v4.8c0,8.2,6.7,14.9,14.9,14.9h155.8
		c8.2,0,14.9-6.7,14.9-14.9V29.8h233.2v174.8H196.2c-8.2,0-14.9,6.7-14.9,14.9v163.6c0,8.2,6.7,14.9,14.9,14.9h296.1
		c8.2,0,14.9-6.7,14.9-14.9V219.4C507.1,211.2,500.4,204.6,492.2,204.6z M50.7,162.2l110-111.2v111.2H50.7z M477.3,368.2H211V234.3
		h266.3L477.3,368.2L477.3,368.2z"/>
	<path class="st1" d="M298.7,270.3c-7.5,0-11.8,4.2-11.8,13.1v34.7c0,8.9,4.3,13.1,11.7,13.1s11.8-4.2,11.8-13.1v-4.5h-7.7
		c-3.9,0-6.2-3.8-6.2-7.9c0-3.8,2.2-7.9,6.2-7.9h22c3.9,0,6.2,3,6.2,6.4v13.7c0,22.5-14.1,30.9-32.2,30.9s-32.1-8.4-32.1-30.9v-34.7
		c0-22.5,14.3-30.9,31.4-30.9c18.7,0,32.9,9.4,32.9,26.1c0,7.9-3.3,9.7-10.2,9.7c-5.5,0-10.1-1.4-10.2-6.2
		C310.2,277.4,309.8,270.3,298.7,270.3z"/>
	<path class="st1" d="M342.5,258.7c0-4.3,5.1-6.2,10.2-6.2c5.1,0,10.2,1.8,10.2,6.2v83.3c0,4.2-5.1,6.3-10.2,6.3
		c-5.1,0-10.2-2.1-10.2-6.3V258.7z"/>
	<path class="st1" d="M377.1,258.8c0-4.2,4.5-6.3,8.9-6.3h45.4c4.3,0,6.2,4.6,6.2,8.8c0,4.8-2.2,9-6.2,9h-33.9v22.1h19.8
		c3.9,0,6.2,3.8,6.2,8c0,3.5-1.8,7.7-6.2,7.7h-19.8v33.8c0,4.2-5.1,6.3-10.2,6.3s-10.2-2.1-10.2-6.3L377.1,258.8L377.1,258.8z"/>
</g>
</svg>
