<?xml version="1.0" encoding="utf-8"?>
<!-- Generator: Adobe Illustrator 23.0.0, SVG Export Plug-In . SVG Version: 6.00 Build 0)  -->
<svg version="1.1" id="Layer_1" xmlns="http://www.w3.org/2000/svg" xmlns:xlink="http://www.w3.org/1999/xlink" x="0px" y="0px"
	 viewBox="0 0 12.2 15.3" style="enable-background:new 0 0 12.2 15.3;" xml:space="preserve">
<style type="text/css">
	.st0{fill:#E9E9E0;}
	.st1{fill:#707070;}
	.st2{fill:#D9D7CA;}
	.st3{fill:#F3D55B;}
	.st4{fill:#26B99A;}
	.st5{fill:#14A085;}
</style>
<g>
	<path id="Path_3064_1_" class="st0" d="M8.6,0.1H0.5c-0.2,0-0.4,0.2-0.4,0.5v14.2c0,0.1,0.2,0.3,0.4,0.3h11.1
		c0.2,0,0.4-0.2,0.4-0.3V3.6c0-0.2,0-0.2-0.1-0.3L8.8,0.2C8.7,0.1,8.7,0.1,8.6,0.1z"/>
	<path class="st1" d="M11.6,15.3H0.5C0.2,15.3,0,15,0,14.8V0.6C0,0.2,0.2,0,0.5,0h8.1c0.1,0,0.2,0,0.3,0.1L12,3.2
		c0.1,0.1,0.1,0.2,0.1,0.4v11.2C12.1,15,11.8,15.3,11.6,15.3z M0.5,0.2c-0.1,0-0.3,0.2-0.3,0.4v14.2c0,0,0.1,0.2,0.3,0.2h11.1
		c0.1,0,0.3-0.1,0.3-0.2l0-11.2c0-0.1,0-0.1-0.1-0.2L8.7,0.3c0,0-0.1-0.1-0.1-0.1l0,0c0,0,0,0,0,0H0.5z"/>
</g>
<path id="Path_3065" class="st2" d="M8.7,0.2v3.2H12L8.7,0.2z"/>
<ellipse id="Ellipse_131" class="st3" cx="3.6" cy="4" rx="1.3" ry="1.2"/>
<path id="Path_3066" class="st4" d="M0.1,10.5h12v-3L9.3,5L6.4,8.1L4.8,6.6L0.1,10.5z"/>
<g>
	<path class="st5" d="M0.1,10.5v4.1c0,0.2,0.2,0.4,0.4,0.4h11.2c0.2,0,0.4-0.2,0.4-0.4v-4.1H0.1z M4.2,13c-0.2,0.2-0.4,0.2-0.8,0.2
		H2.9v1H2.3v-2.8h1.1c0.2,0,0.4,0,0.5,0.1s0.3,0.2,0.4,0.3c0.1,0.1,0.1,0.3,0.1,0.5C4.5,12.6,4.4,12.9,4.2,13z M7.1,14.2H6.5
		l-1.1-1.8v1.8H4.9v-2.8h0.6l1.1,1.8v-1.8h0.6V14.2z M8.3,13.6c0.1,0.1,0.3,0.2,0.5,0.2c0.2,0,0.4,0,0.5-0.1v-0.5H8.7v-0.4h1.1v1.1
		c-0.1,0.1-0.2,0.2-0.4,0.3c-0.2,0.1-0.4,0.1-0.6,0.1c-0.2,0-0.5-0.1-0.6-0.2s-0.3-0.3-0.4-0.5s-0.1-0.4-0.2-0.7v-0.2
		c0-0.3,0-0.5,0.1-0.7c0.1-0.2,0.2-0.4,0.4-0.5c0.2-0.1,0.4-0.2,0.6-0.2c0.3,0,0.6,0.1,0.8,0.2c0.2,0.2,0.3,0.4,0.3,0.7H9.2
		c0-0.2-0.1-0.3-0.2-0.3c-0.1-0.1-0.2-0.1-0.4-0.1c-0.2,0-0.3,0.1-0.4,0.2c-0.1,0.1-0.2,0.4-0.2,0.7v0.2C8.1,13.2,8.2,13.4,8.3,13.6
		z"/>
	<path class="st5" d="M3.4,11.9H2.9v0.9h0.5c0.2,0,0.3,0,0.3-0.1c0.1-0.1,0.1-0.2,0.1-0.3c0-0.1,0-0.2-0.1-0.3
		C3.7,12,3.6,11.9,3.4,11.9z"/>
</g>
</svg>
