<?xml version="1.0" encoding="utf-8"?>
<!-- Generator: Adobe Illustrator 22.1.0, SVG Export Plug-In . SVG Version: 6.00 Build 0)  -->
<svg version="1.1" id="Capa_1" xmlns="http://www.w3.org/2000/svg" xmlns:xlink="http://www.w3.org/1999/xlink" x="0px" y="0px"
	 viewBox="0 0 585.9 585.9" style="enable-background:new 0 0 585.9 585.9;" xml:space="preserve">
<style type="text/css">
	.st0{fill:#157077;}
</style>
<g>
	<path class="st0" d="M357.4,535.3c0.8,0,1.5,0.1,2.3,0.1h177.4c20.8,0,37.6-16.9,37.6-37.6V86.6c0-20.7-16.9-37.6-37.6-37.6H359.7
		c-0.8,0-1.6,0.1-2.3,0.1V0L11.2,46.2v492.3l346.2,47.4V535.3z M359.7,70.5h177.4c8.9,0,16.1,7.2,16.1,16.1v411.2
		c0,8.9-7.2,16.1-16.1,16.1H359.7c-0.8,0-1.6-0.1-2.3-0.2V382.4h165.1c4,0,7.2-3.2,7.2-7.2c0-4-3.2-7.2-7.2-7.2H357.4v-43.9h165.1
		c4,0,7.2-3.2,7.2-7.2c0-4-3.2-7.2-7.2-7.2H357.4v-42.6h165.1c4,0,7.2-3.2,7.2-7.2c0-4-3.2-7.2-7.2-7.2H357.4v-43h88.8
		c4,0,7.2-3.2,7.2-7.2c0-4-3.2-7.2-7.2-7.2h-88.8V70.7C358.2,70.6,358.9,70.5,359.7,70.5z M112.1,257.5L83.3,258v90.3l-23.4-0.6
		v-89.3l-27.1,0.5v-20.7l79.4-2.1L112.1,257.5L112.1,257.5L112.1,257.5z M186.7,350.8l-10.3-21.3c-4.2-8.2-6.9-14.2-10-20.9l-0.3,0
		c-2.3,6.7-5.2,12.7-8.6,20.7l-9.2,20.6l-28.2-0.7l31.6-57.4l-30.5-56l28.4-0.7l9.7,20.8c3.3,7,5.8,12.6,8.5,19.1l0.3,0
		c2.7-7.4,4.9-12.6,7.7-19.4l9.6-21.4l29.9-0.8l-32.6,57.7l34.4,60.5L186.7,350.8z M318.1,254.1l-34.5,0.6v98.6l-27.9-0.7v-97.4
		l-32.2,0.5v-22.5l94.6-2.5L318.1,254.1L318.1,254.1L318.1,254.1z"/>
</g>
</svg>
