<?xml version="1.0" encoding="utf-8"?>
<!-- Generator: Adobe Illustrator 23.0.0, SVG Export Plug-In . SVG Version: 6.00 Build 0)  -->
<svg version="1.1" id="Capa_1" xmlns="http://www.w3.org/2000/svg" xmlns:xlink="http://www.w3.org/1999/xlink" x="0px" y="0px"
	 viewBox="0 0 512 512" style="enable-background:new 0 0 512 512;" xml:space="preserve">
<style type="text/css">
	.st0{fill:#0E9B65;}
</style>
<path class="st0" d="M501.3,53.3H298.6V21.4c0.1-3.3-1.4-6.4-3.9-8.4c-2.5-2.1-5.9-2.8-9-2.1L8.3,74.9C3.4,76,0,80.4,0,85.4V448
	c0,5.3,3.8,9.7,9,10.5l277.3,42.7c5.8,0.9,11.3-3.1,12.2-8.9c0.1-0.5,0.1-1.1,0.1-1.6v-32h202.7c5.9,0,10.7-4.8,10.7-10.7V64
	C512,58.1,507.2,53.3,501.3,53.3z M298.6,202.7h64v42.6h-64V202.7z M298.6,266.7h64v42.6h-64V266.7z M384,266.7h106.7v42.6H384
	V266.7z M384,245.3v-42.6h106.7v42.6H384z M384,181.3v-42.6h106.7v42.6H384z M362.6,181.3h-64v-42.6h64V181.3z M298.6,330.7h64v42.6
	h-64V330.7z M384,330.7h106.7v42.6H384V330.7z M490.7,117.3H384V74.7h106.7V117.3z M362.6,74.7v42.6h-64V74.7H362.6z M211.8,335.8
	c3.1,5,1.6,11.6-3.4,14.7c-1.8,1-3.7,1.5-5.7,1.5c-3.7,0-7.1-1.9-9-5l-44.3-70.9L105.1,347c-2,3.1-5.4,5-9.1,5
	c-5.9,0-10.7-4.8-10.6-10.7c0-2,0.6-3.9,1.6-5.6l49.8-79.7L87,176.4c-3.3-4.9-2-11.5,2.9-14.8c4.9-3.3,11.5-2,14.8,2.9
	c0.1,0.2,0.3,0.4,0.4,0.6l44.3,70.8l44.3-70.9c3-5.1,9.5-6.8,14.6-3.9c5.1,3,6.8,9.5,3.9,14.6c-0.1,0.2-0.2,0.4-0.4,0.6L162,256
	L211.8,335.8z M298.6,394.7h64v42.6h-64V394.7z M384,437.3v-42.6h106.7v42.6H384z"/>
</svg>
