<svg xmlns="http://www.w3.org/2000/svg" width="24.856" height="32.371" viewBox="0 0 24.856 32.371">
  <g id="xml" transform="translate(-6.5)">
    <path id="Path_13763" data-name="Path 13763" d="M24.122,0H7.346C6.879,0,6.5.379,6.5,1.113v30.68a.871.871,0,0,0,.846.578H30.511a.871.871,0,0,0,.846-.578V7.5c0-.4-.054-.532-.149-.627L24.482.149A.511.511,0,0,0,24.122,0Z" fill="#e9e9e0"/>
    <path id="Path_13764" data-name="Path 13764" d="M37.5.151V7h6.849Z" transform="translate(-13.08 -0.064)" fill="#d9d7ca"/>
    <path id="Path_13765" data-name="Path 13765" d="M30.511,48.827H7.346a.846.846,0,0,1-.846-.846V39H31.356v8.981A.846.846,0,0,1,30.511,48.827Z" transform="translate(0 -16.456)" fill="#f29c1f"/>
    <g id="Group_4419" data-name="Group 4419" transform="translate(11.131 24.812)">
      <path id="Path_13766" data-name="Path 13766" d="M17.325,45.918l1.478,2.83h-1.1l-.925-2.2H16.7l-1,2.2h-1.1l1.478-2.83-1.573-3h1.083l1.027,2.371H16.7l1.114-2.371H18.9Z" transform="translate(-14.512 -42.923)" fill="#fff"/>
      <path id="Path_13767" data-name="Path 13767" d="M28.773,42.924h.964v5.824h-.964V44.741l-1.3,3.24h-.838l-1.312-3.24v4.007h-.964V42.924h.964l1.731,3.983Z" transform="translate(-18.665 -42.923)" fill="#fff"/>
      <path id="Path_13768" data-name="Path 13768" d="M37.159,42.924v5.105h2.679v.719H36.195V42.924Z" transform="translate(-23.661 -42.923)" fill="#fff"/>
    </g>
    <path id="Path_13769" data-name="Path 13769" d="M15.078,20.624a.578.578,0,0,1-.409-.987l3.468-3.468a.578.578,0,0,1,.817.817l-3.468,3.468A.576.576,0,0,1,15.078,20.624Z" transform="translate(-3.375 -6.751)" fill="#f29c1f"/>
    <path id="Path_13770" data-name="Path 13770" d="M18.546,26.624a.576.576,0,0,1-.409-.169l-3.468-3.468a.578.578,0,0,1,.817-.817l3.468,3.468a.578.578,0,0,1-.409.987Z" transform="translate(-3.375 -9.283)" fill="#f29c1f"/>
    <path id="Path_13771" data-name="Path 13771" d="M33.078,26.624a.578.578,0,0,1-.409-.987l3.468-3.468a.578.578,0,1,1,.817.817l-3.468,3.468A.576.576,0,0,1,33.078,26.624Z" transform="translate(-10.97 -9.283)" fill="#f29c1f"/>
    <path id="Path_13772" data-name="Path 13772" d="M36.546,20.624a.576.576,0,0,1-.409-.169l-3.468-3.468a.578.578,0,0,1,.817-.817l3.468,3.468a.578.578,0,0,1-.409.987Z" transform="translate(-10.97 -6.751)" fill="#f29c1f"/>
    <path id="Path_13773" data-name="Path 13773" d="M24.078,23.982a.579.579,0,0,1-.545-.771L27,13.384a.578.578,0,0,1,1.09.385L24.623,23.6A.578.578,0,0,1,24.078,23.982Z" transform="translate(-7.173 -5.485)" fill="#f29c1f"/>
  </g>
</svg>
