<?xml version="1.0" encoding="utf-8"?>
<!-- Generator: Adobe Illustrator 22.1.0, SVG Export Plug-In . SVG Version: 6.00 Build 0)  -->
<svg version="1.1" id="Layer_1" xmlns="http://www.w3.org/2000/svg" xmlns:xlink="http://www.w3.org/1999/xlink" x="0px" y="0px"
	 viewBox="0 0 512 512" style="enable-background:new 0 0 512 512;" xml:space="preserve">
<style type="text/css">
	.st0{fill:#FFFFFF;}
	.st1{fill:#2B669F;}
	.st2{fill:#084272;}
	.st3{fill:#1A252D;}
</style>
<g id="XMLID_806_">
	<g id="XMLID_426_">
		<g id="XMLID_440_">
			<path id="XMLID_445_" class="st0" d="M422.3,477.9c0,7.6-6.2,13.8-13.8,13.8h-305c-7.6,0-13.8-6.2-13.8-13.8V34.1
				c0-7.6,6.2-13.8,13.8-13.8h230.1V109h88.7V477.9z"/>
			<path id="XMLID_442_" class="st1" d="M333.6,6H103.5C88,6,75.4,18.6,75.4,34.1v443.8c0,15.5,12.6,28.1,28.1,28.1h305
				c15.5,0,28.1-12.6,28.1-28.1V109.1L333.6,6z M422.3,477.9c0,7.6-6.2,13.8-13.8,13.8h-305c-7.6,0-13.8-6.2-13.8-13.8V34.1
				c0-7.6,6.2-13.8,13.8-13.8h230.1V109h88.7V477.9z"/>
			<path id="XMLID_441_" class="st2" d="M333.6,6v103.1h103L333.6,6z"/>
		</g>
		<g id="XMLID_435_">
			<path id="XMLID_439_" class="st2" d="M465.9,450.8H46.1V308c0-9.8,7.9-17.7,17.7-17.7h384.3c9.8,0,17.7,7.9,17.7,17.7v142.8
				H465.9z"/>
			<path id="XMLID_438_" class="st3" d="M436.6,450.8v19.5l29.3-19.5H436.6z"/>
			<path id="XMLID_437_" class="st3" d="M75.4,450.8v19.5l-29.3-19.5H75.4z"/>
			<path id="XMLID_436_" class="st1" d="M64.1,308.4h383.7v124.5H64.1V308.4z"/>
		</g>
		<g id="XMLID_427_">
			<path id="XMLID_434_" class="st1" d="M298.3,78.6h-177c-3.7,0-6.7-3-6.7-6.7c0-3.7,3-6.7,6.7-6.7h177c3.7,0,6.7,3,6.7,6.7
				C305,75.6,302,78.6,298.3,78.6z"/>
			<path id="XMLID_433_" class="st1" d="M298.3,110.6h-177c-3.7,0-6.7-3-6.7-6.7c0-3.7,3-6.7,6.7-6.7h177c3.7,0,6.7,3,6.7,6.7
				C305,107.6,302,110.6,298.3,110.6z"/>
			<path id="XMLID_432_" class="st1" d="M391.8,142.5H121.3c-3.7,0-6.7-3-6.7-6.7c0-3.7,3-6.7,6.7-6.7h270.5c3.7,0,6.7,3,6.7,6.7
				C398.5,139.5,395.5,142.5,391.8,142.5z"/>
			<path id="XMLID_431_" class="st1" d="M391.8,174.5H121.3c-3.7,0-6.7-3-6.7-6.7c0-3.7,3-6.7,6.7-6.7h270.5c3.7,0,6.7,3,6.7,6.7
				C398.5,171.5,395.5,174.5,391.8,174.5z"/>
			<path id="XMLID_430_" class="st1" d="M391.8,206.5H121.3c-3.7,0-6.7-3-6.7-6.7c0-3.7,3-6.7,6.7-6.7h270.5c3.7,0,6.7,3,6.7,6.7
				C398.5,203.5,395.5,206.5,391.8,206.5z"/>
			<path id="XMLID_429_" class="st1" d="M391.8,238.4H121.3c-3.7,0-6.7-3-6.7-6.7c0-3.7,3-6.7,6.7-6.7h270.5c3.7,0,6.7,3,6.7,6.7
				C398.5,235.4,395.5,238.4,391.8,238.4z"/>
			<path id="XMLID_428_" class="st1" d="M391.8,270.4H121.3c-3.7,0-6.7-3-6.7-6.7c0-3.7,3-6.7,6.7-6.7h270.5c3.7,0,6.7,3,6.7,6.7
				C398.5,267.4,395.5,270.4,391.8,270.4z"/>
		</g>
	</g>
	<g id="XMLID_134_">
		<path id="XMLID_107_" class="st0" d="M208.6,384.8H231v11.8h-41.9V388l21.9-28.9h-21v-11.8h40.4v8.3L208.6,384.8L208.6,384.8z"/>
		<path id="XMLID_109_" class="st0" d="M261.2,335.9h-15.4v-10.3h15.4V335.9z M261.2,396.6h-15.4v-49.3h15.4V396.6z"/>
		<path id="XMLID_112_" class="st0" d="M322.8,373.1c0,7.4-1.7,13.4-5,17.8c-3.3,4.5-8,6.7-14.1,6.7c-2.4,0-4.5-0.5-6.3-1.4
			s-3.4-2.2-4.8-4v23.3h-15.4v-68.2h14.5l0.5,5.4c1.4-2,3-3.6,4.9-4.6c1.9-1.1,4.1-1.6,6.5-1.6c6.1,0,10.8,2.4,14.2,7.1
			c3.4,4.7,5,10.9,5,18.6L322.8,373.1L322.8,373.1z M307.5,372.1c0-4.2-0.6-7.5-1.8-10c-1.2-2.5-3.2-3.8-5.8-3.8
			c-1.7,0-3.2,0.3-4.4,1c-1.2,0.6-2.1,1.6-2.8,2.8v20.6c0.7,1.1,1.7,1.9,2.9,2.4s2.7,0.8,4.4,0.8c2.7,0,4.6-1.1,5.8-3.3
			c1.2-2.2,1.8-5.4,1.8-9.4v-1.1H307.5z"/>
	</g>
</g>
</svg>
