<svg xmlns="http://www.w3.org/2000/svg" width="12.979" height="12.983" viewBox="0 0 12.979 12.983">
  <g id="check-circle" transform="translate(-1.25 -1.242)">
    <path id="Path_16712" data-name="Path 16712" d="M7.736,14.225A6.491,6.491,0,1,1,10.381,1.806a.75.75,0,0,1-.611,1.37,4.989,4.989,0,1,0,2.959,4.56V7.209a.75.75,0,1,1,1.5,0v.528a6.5,6.5,0,0,1-6.493,6.489Z" fill="#00703c"/>
    <path id="Path_16713" data-name="Path 16713" d="M10.722,10.5a.75.75,0,0,1-.531-.22L8.47,8.554A.75.75,0,0,1,9.53,7.493l1.191,1.191L15.931,3.47a.75.75,0,0,1,1.061,1.06l-5.739,5.745A.75.75,0,0,1,10.722,10.5Z" transform="translate(-2.982 -0.855)" fill="#00703c"/>
  </g>
</svg>
