<svg xmlns="http://www.w3.org/2000/svg" width="13.96" height="13.96" viewBox="0 0 13.96 13.96">
  <g id="x-circle" transform="translate(-0.909 -0.909)">
    <path id="Path_16723" data-name="Path 16723" d="M6.23-.75A6.98,6.98,0,1,1-.75,6.23,6.988,6.988,0,0,1,6.23-.75Zm0,12.46A5.48,5.48,0,1,0,.75,6.23,5.486,5.486,0,0,0,6.23,11.71Z" transform="translate(1.659 1.659)" fill="#e60000"/>
    <path id="Line_1048" data-name="Line 1048" d="M0,4.142a.748.748,0,0,1-.53-.22.75.75,0,0,1,0-1.061L2.862-.53a.75.75,0,0,1,1.061,0,.75.75,0,0,1,0,1.061L.53,3.922A.748.748,0,0,1,0,4.142Z" transform="translate(6.193 6.193)" fill="#e60000"/>
    <path id="Line_1049" data-name="Line 1049" d="M3.392,4.142a.748.748,0,0,1-.53-.22L-.53.53A.75.75,0,0,1-.53-.53.75.75,0,0,1,.53-.53L3.922,2.862a.75.75,0,0,1-.53,1.28Z" transform="translate(6.193 6.193)" fill="#e60000"/>
  </g>
</svg>
