<svg xmlns="http://www.w3.org/2000/svg" width="900" height="900" viewBox="0 0 900 900">
  <path id="avatar_default" d="M450,0C201.5,0,0,201.468,0,450S201.478,900,450,900c248.542,0,450-201.467,450-450S698.542,0,450,0Zm0,134.555A148.847,148.847,0,1,1,301.179,283.4,148.853,148.853,0,0,1,450,134.556Zm-.1,647.79a330.245,330.245,0,0,1-215.058-79.306,63.431,63.431,0,0,1-22.257-48.212c0-83.358,67.462-150.072,150.837-150.072H536.616c83.394,0,150.6,66.714,150.6,150.072a63.273,63.273,0,0,1-22.237,48.192A330.129,330.129,0,0,1,449.9,782.347Z" transform="translate(0 -0.001)" fill="#90a8bb"/>
</svg>
